<svg width="512" height="512" viewBox="0 0 512 512" xmlns="http://www.w3.org/2000/svg">
  <rect width="512" height="512" fill="#333333"/>
  <g fill="#1a1a1a">
    <!-- QR Code Squares -->
    <rect x="64" y="64" width="128" height="128" rx="16"/>
    <rect x="64" y="320" width="128" height="128" rx="16"/>
    <rect x="320" y="64" width="128" height="128" rx="16"/>
    
    <!-- QR Code Connecting Lines -->
    <rect x="224" y="96" width="64" height="32"/>
    <rect x="224" y="160" width="32" height="64"/>
    <rect x="160" y="224" width="64" height="32"/>
    <rect x="256" y="224" width="32" height="64"/>
    <rect x="224" y="288" width="64" height="32"/>
    
    <!-- Discount Tag -->
    <path d="M448,256 L320,384 C304,400 280,400 264,384 L264,384 C248,368 248,344 264,328 L392,200 C408,184 432,184 448,200 L448,200 C464,216 464,240 448,256 Z" />
    
    <!-- Percentage Symbol -->
    <circle cx="360" cy="264" r="20" fill="#333333"/>
    <circle cx="296" cy="328" r="20" fill="#333333"/>
    <rect x="280" y="344" width="96" height="16" rx="8" transform="rotate(-45 328 352)" fill="#333333"/>
  </g>
</svg>